<?xml version="1.0" standalone="no"?>
<!DOCTYPE svg PUBLIC "-//W3C//DTD SVG 20010904//EN"
 "http://www.w3.org/TR/2001/REC-SVG-20010904/DTD/svg10.dtd">
<svg version="1.0" xmlns="http://www.w3.org/2000/svg"
 width="282.000000pt" height="282.000000pt" viewBox="0 0 282.000000 282.000000"
 preserveAspectRatio="xMidYMid meet">
<metadata>
Created by potrace 1.11, written by Peter Selinger 2001-2013
</metadata>
<g transform="translate(0.000000,282.000000) scale(0.100000,-0.100000)"
fill="#000000" stroke="none">
<path d="M1335 2773 c-33 -19 -78 -45 -100 -58 -54 -30 -697 -399 -860 -493
-71 -41 -143 -82 -160 -92 l-30 -17 -3 -685 -2 -685 277 -163 c153 -90 328
-192 388 -228 61 -35 124 -73 141 -82 30 -17 175 -103 204 -120 8 -5 62 -37
119 -71 l104 -61 56 29 c31 17 243 140 471 273 228 134 440 258 470 275 30 18
93 54 140 82 l85 49 1 691 c1 689 1 690 -20 703 -35 22 -329 190 -332 190 -2
0 -33 18 -69 40 -36 22 -68 40 -70 40 -3 0 -22 11 -43 23 -20 13 -58 36 -84
50 -26 14 -125 71 -221 126 -96 55 -192 110 -213 121 -21 12 -69 40 -106 61
-36 22 -70 39 -75 38 -4 0 -35 -17 -68 -36z"/>
</g>
</svg>
